<svg width="551" height="551" viewBox="0 0 551 551" fill="none" xmlns="http://www.w3.org/2000/svg">
<path d="M116.371 309.607H65.3481V505.983H116.371V309.607Z" fill="#6068DB"/>
<path d="M207.259 505.542H160.589V505.983H207.259V505.542Z" fill="#FF4320"/>
<path d="M206.845 283.903C206.983 283.793 207.121 283.655 207.259 283.545V450.718L206.845 450.938L160.589 476.615V265.224H179.516C183.015 273.957 188.249 283.352 195.109 285.418C199.93 286.878 203.897 286.355 206.845 283.903Z" fill="#FF4320"/>
<path d="M215.468 139.816L214.146 240.594L214.119 241.641C213.981 241.531 213.843 241.421 213.705 241.338C211.722 239.85 209.655 238.886 207.617 238.886C207.507 238.886 207.396 238.886 207.286 238.886C205.137 238.996 203.677 240.126 202.933 242.247C202.41 243.707 202.3 245.581 202.52 247.702C202.575 248.253 201.666 247.95 201.666 247.95C201.638 247.922 201.638 247.895 201.611 247.867C198.773 241.558 195.219 238.032 191.913 238.032C191.39 238.032 190.866 238.115 190.343 238.307C188.222 239.051 186.734 241.283 186.348 243.9C186.293 244.286 185.329 245.36 185.467 244.176C183.758 242.385 181.995 241.448 180.26 241.448C179.736 241.448 179.213 241.531 178.689 241.724C175.604 242.798 173.868 247.068 174.887 251.008C175.631 253.901 177.174 259.411 179.488 265.224H172.738L152.241 260.733V139.816H215.468Z" fill="#FF4320"/>
<path d="M390.383 380.465L344.843 339.14L341.124 306.108H340.683V310.02V505.57V505.983H390.797V382.036V380.851L390.383 380.465Z" fill="#BBF3F7"/>
<path d="M494.99 428.816L495.431 428.209V505.983H445.979V497.002L494.99 428.816Z" fill="#FF4320"/>
<path d="M495.431 400.742V410.743L494.99 409.889L488.984 398.097C488.902 397.932 488.929 397.712 489.067 397.574C489.205 397.436 489.425 397.409 489.591 397.519L494.99 400.494L495.431 400.742Z" fill="#FF4320"/>
<path d="M495.431 286.63V360.023L494.99 359.72L445.979 326.936V286.63H495.431Z" fill="#FF4320"/>
<path d="M264.645 351.483L242.33 408.897V351.483H264.645Z" fill="#BBF3F7"/>
<path d="M286.024 505.542V505.983H242.33V505.542H261.642L273.874 486.257C273.985 486.092 274.177 486.037 274.343 486.065C274.536 486.12 274.646 486.257 274.673 486.45L276.299 505.542H286.024Z" fill="#BBF3F7"/>
<path d="M499.637 220.525L478.737 208.458L466.67 229.358L487.57 241.425L499.637 220.525Z" fill="#BBF3F7"/>
<path d="M495.322 238.638C495.239 238.638 495.184 238.61 495.101 238.583L474.191 226.516C473.97 226.406 473.915 226.13 474.025 225.91L486.092 204.999C486.202 204.779 486.478 204.724 486.698 204.834L507.609 216.901C507.719 216.956 507.774 217.066 507.802 217.177C507.829 217.287 507.829 217.397 507.747 217.507L495.68 238.418C495.625 238.555 495.459 238.638 495.322 238.638ZM475.017 225.965L495.156 237.591L506.782 217.452L486.643 205.826L475.017 225.965Z" fill="#6C6B80"/>
<path d="M411.464 29.7535L387.612 33.4363L391.295 57.2877L415.147 53.6049L411.464 29.7535Z" fill="#6068DB"/>
<path d="M383.276 63.1998C383.055 63.1998 382.89 63.0345 382.835 62.8416L379.143 38.9833C379.116 38.8731 379.143 38.7629 379.226 38.6527C379.281 38.5701 379.391 38.4874 379.501 38.4874L403.36 34.7957C403.607 34.7682 403.828 34.9335 403.855 35.1539L407.547 59.0122C407.575 59.2601 407.409 59.4805 407.189 59.5081L383.331 63.1998C383.303 63.1998 383.276 63.1998 383.276 63.1998ZM380.08 39.2864L383.634 62.2631L406.61 58.7091L403.056 35.7324L380.08 39.2864Z" fill="#6C6B80"/>
<path d="M445.125 139.899C444.189 139.899 442.976 139.458 442.012 137.612C441.158 136.014 441.874 132.13 443.803 127.942C444.877 125.6 447.081 121.606 450.746 118.217C449.864 116.537 448.569 114.939 446.668 113.561C442.563 110.613 438.376 109.732 434.16 110.916C421.653 114.47 412.892 135.243 412.809 135.463L412.01 135.133C412.368 134.251 421.019 113.754 433.94 110.09C438.403 108.823 442.866 109.759 447.192 112.845C448.982 114.14 450.387 115.738 451.407 117.611C452.04 117.06 452.702 116.537 453.418 116.041C458.129 112.762 463.308 111.743 468.873 113.01C475.541 114.525 482.538 119.374 489.729 127.391L489.068 127.97C472.813 109.787 460.994 111.825 453.914 116.757C453.17 117.253 452.481 117.831 451.82 118.41C453.418 121.826 453.721 125.986 452.564 130.394C451.241 135.546 448.266 139.513 445.484 139.844C445.373 139.871 445.236 139.899 445.125 139.899ZM451.131 119.071C444.602 125.325 441.544 134.912 442.756 137.227C443.445 138.549 444.326 139.155 445.373 139.017C447.715 138.742 450.498 134.885 451.71 130.229C452.178 128.411 453.087 123.589 451.131 119.071Z" fill="#6C6B80"/>
<path d="M64.3566 262.827C61.4914 262.827 58.7364 261.477 57.111 259.218C55.2927 256.683 55.1549 253.35 56.7253 250.099C58.9568 245.443 65.6515 243.156 74.192 244.176C74.6879 244.231 75.1838 244.313 75.6797 244.396C75.597 241.338 74.7981 238.5 73.2553 235.911C65.5964 222.962 42.1789 220.18 41.9585 220.152L42.0687 219.271C42.1238 219.271 48.1297 219.987 55.0172 222.301C61.4088 224.45 69.8942 228.472 73.9991 235.47C75.6521 238.252 76.4786 241.283 76.5337 244.561C81.0244 245.415 85.3222 247.096 88.8486 249.438C93.5596 252.578 96.5901 256.683 97.6095 261.312L96.7554 261.505C94.8269 252.634 85.3773 247.179 76.5337 245.471C76.4511 248.474 75.7072 251.669 74.3297 255.03C72.4839 259.521 69.2054 262.359 65.3484 262.827C65.0454 262.827 64.6872 262.827 64.3566 262.827ZM70.4176 244.837C64.1087 244.837 59.2323 246.903 57.4967 250.485C56.0641 253.488 56.1743 256.408 57.7997 258.722C59.4252 261.009 62.3455 262.249 65.2658 261.918C67.3596 261.67 71.189 260.43 73.5583 254.672C74.9083 251.366 75.6246 248.226 75.6797 245.278C75.1287 245.195 74.6052 245.112 74.0818 245.057C72.842 244.892 71.6023 244.837 70.4176 244.837Z" fill="#6C6B80"/>
<path d="M222.677 60.1726L216.697 78.3325L217.534 78.6083L223.515 60.4484L222.677 60.1726Z" fill="#6C6B80"/>
<path d="M235.587 74.6645L230.717 80.8591L231.41 81.404L236.28 75.2093L235.587 74.6645Z" fill="#6C6B80"/>
<path d="M84.1744 72.2588L83.4277 72.7275L102.471 103.063L103.217 102.594L84.1744 72.2588Z" fill="#6C6B80"/>
<path d="M79.3197 104.631L78.9517 105.432L95.3494 112.966L95.7174 112.165L79.3197 104.631Z" fill="#6C6B80"/>
<path d="M90.832 124.278H67.1665V125.16H90.832V124.278Z" fill="#6C6B80"/>
<path d="M382.449 154.776C382.283 155.024 382.118 155.272 381.953 155.492C378.702 159.68 373.192 159.156 360.381 160.231C346.909 161.36 347.019 172.353 347.019 172.353C347.019 172.353 347.653 172.849 348.452 173.758C348.92 174.529 349.334 175.301 349.664 176.045C349.857 176.485 350.05 176.899 350.188 177.312C350.684 178.689 350.987 180.012 351.042 181.334C350.959 181.802 350.849 182.298 350.684 182.822C348.59 188.773 347.019 191.197 347.019 191.197C347.019 191.197 346.579 191.555 345.78 192.161C341.95 195.082 330.131 204.035 321.012 209.545C317.431 211.722 314.235 213.347 312.141 213.843C312.086 213.705 312.059 213.595 312.003 213.457C309.551 206.487 303.49 193.539 300.322 186.899C300.102 186.458 299.909 186.045 299.716 185.659C298.835 183.841 298.311 182.739 298.311 182.739L282.856 181.527H282.8L280.955 181.389L271.725 180.673L267.042 146.731L266.766 144.665L266.463 142.489L264.259 144.279C264.259 144.279 269.879 130.504 292.663 121.275C315.42 112.046 328.506 111.66 338.341 112.597C338.81 112.652 339.278 112.707 339.746 112.762C339.967 112.79 340.215 112.845 340.435 112.872C340.6 112.9 340.738 112.927 340.903 112.955C340.986 112.983 341.096 112.983 341.179 113.01C341.344 113.038 341.509 113.065 341.647 113.12C347.075 114.36 352.612 117.446 358.095 122.102C358.453 122.405 358.783 122.708 359.141 123.011C361.924 125.49 364.707 128.383 367.406 131.634C367.709 131.992 367.985 132.35 368.288 132.708C370.905 135.959 373.467 139.541 375.947 143.453C376.195 143.866 376.47 144.279 376.718 144.693C378.702 147.833 380.603 151.194 382.449 154.776Z" fill="#BBF3F7"/>
<path d="M350.188 177.312C349.94 177.395 349.664 177.477 349.416 177.56C336.854 181.389 323.795 182.794 314.125 183.841C312.913 183.979 311.728 184.089 310.626 184.227C307.155 184.613 303.711 185.522 300.35 186.899C300.129 186.459 299.937 186.045 299.744 185.66C303.243 184.199 306.852 183.263 310.461 182.849C311.59 182.739 312.747 182.602 313.959 182.464C323.547 181.417 336.468 180.012 348.865 176.265C349.141 176.182 349.389 176.1 349.637 176.017C349.857 176.458 350.022 176.871 350.188 177.312Z" fill="white"/>
<path d="M376.719 144.637C376.471 144.224 376.195 143.811 375.947 143.398C359.555 163.454 328.203 166.87 309.414 168.909C308.202 169.047 307.017 169.157 305.915 169.295C296.052 170.397 288.283 175.273 283.462 179.185C282.553 179.929 281.699 180.673 280.927 181.362L282.856 181.499C287.98 177.036 295.942 171.802 306.053 170.645C307.155 170.507 308.34 170.397 309.552 170.259C328.451 168.22 359.886 164.804 376.719 144.637Z" fill="white"/>
<path d="M300.488 141.497C304.014 140.78 307.733 140.147 311.673 139.458C328.341 136.593 347.185 133.342 359.142 122.956C358.784 122.652 358.453 122.349 358.095 122.046C346.414 132.075 327.845 135.27 311.425 138.108C307.458 138.797 303.739 139.43 300.185 140.147C281.671 143.894 270.073 157.861 269.962 157.999L271.037 158.881C271.147 158.743 282.443 145.133 300.488 141.497Z" fill="white"/>
<path d="M267.042 146.704C270.486 141.524 277.814 132.157 287.429 128.906C293.6 126.813 300.377 125.573 307.595 124.251C319.717 122.019 332.225 119.732 341.675 113.093C341.041 112.955 340.408 112.817 339.774 112.735C330.71 118.63 318.863 120.807 307.375 122.928C300.129 124.251 293.269 125.518 287.016 127.639C277.676 130.807 270.596 139.21 266.794 144.665L267.042 146.704Z" fill="white"/>
<path d="M302.857 155.795C304.565 155.602 306.383 155.41 308.284 155.217C317.596 154.28 329.167 153.095 340.242 149.652C352.144 145.96 361.346 140.395 368.288 132.653C367.985 132.295 367.71 131.937 367.407 131.579C351.51 149.404 326.55 151.966 308.119 153.839C306.218 154.032 304.4 154.225 302.692 154.418C292.829 155.52 285.06 160.396 280.238 164.308C275.059 168.523 272.221 172.436 272.083 172.573L273.213 173.372C273.351 173.234 284.619 157.862 302.857 155.795Z" fill="white"/>
<path d="M422.507 318.313C422.369 318.561 422.231 318.809 422.066 319.057C419.724 323.051 416.776 326.357 413.553 329.195C410.33 332.033 406.776 334.402 403.304 336.496C402.34 337.074 401.376 337.653 400.412 338.204C397.987 339.609 395.59 340.931 393.386 342.254C383.606 348.067 378.675 353.329 376.278 357.461C375.975 357.957 375.727 358.453 375.506 358.921C373.275 363.605 374.322 366.47 374.322 366.47L367.049 359.858L366.36 359.252L349.499 343.934L348.81 343.328L344.402 339.333L339.939 297.788C339.939 297.788 338.892 302.967 337.267 310.847C337.184 311.315 337.074 311.783 336.964 312.252C336.027 316.825 334.925 322.17 333.768 327.873C333.685 328.341 333.575 328.809 333.465 329.278C332.418 334.374 331.316 339.691 330.242 344.981C330.159 345.449 330.049 345.918 329.966 346.386C328.864 351.813 327.735 357.158 326.715 362.117C326.66 362.448 326.578 362.778 326.522 363.081C326.495 363.219 326.467 363.384 326.44 363.522C325.062 370.134 323.85 375.947 322.968 380.19C322.913 380.465 322.858 380.769 322.803 381.016C322.748 381.209 322.721 381.402 322.693 381.595C322.142 384.212 321.756 386.058 321.563 386.885C319.167 385.397 315.64 383.937 310.654 383.386C308.339 383.138 305.97 383.11 303.573 383.22H303.546C302.526 383.276 301.507 383.358 300.488 383.441C300.405 383.441 300.35 383.441 300.267 383.468C300.212 383.468 300.13 383.468 300.074 383.496C299.799 383.524 299.523 383.551 299.248 383.579C298.862 383.606 298.504 383.661 298.118 383.689H298.063C289.716 384.653 281.313 386.554 274.425 386.113C273.764 386.058 273.075 386.003 272.414 385.893C270.844 385.672 269.329 385.342 267.841 384.901C264.259 383.882 260.981 382.366 258.501 381.044C258.832 380.19 260.347 376.195 262.662 370.024C262.827 369.556 263.02 369.06 263.213 368.591C264.893 364.128 266.932 358.673 269.218 352.557C269.411 352.089 269.577 351.593 269.769 351.125C271.643 346.138 273.654 340.766 275.748 335.146C275.941 334.677 276.106 334.181 276.299 333.713C278.227 328.561 280.238 323.217 282.25 317.789C282.442 317.321 282.608 316.825 282.801 316.357C284.784 311.067 286.795 305.722 288.751 300.433C288.917 299.964 289.11 299.468 289.302 299C291.341 293.573 293.325 288.201 295.253 283.076C295.446 282.58 295.611 282.112 295.804 281.644C297.926 275.996 299.937 270.624 301.755 265.72C301.948 265.224 302.113 264.755 302.306 264.287C303.408 261.339 304.455 258.557 305.392 256.022C305.502 255.719 305.612 255.416 305.722 255.141C319.111 252.771 330.435 249.107 339.746 245.14C341.151 244.534 342.474 243.955 343.769 243.349C347.24 241.751 350.381 240.098 353.218 238.5C362.696 233.128 370.354 227.232 376.333 221.337L376.608 222.246L381.512 239.465L381.898 240.815L386.141 255.692L386.526 257.041L390.769 271.918L391.155 273.268L395.397 288.145L395.783 289.495L399.943 304.069C399.943 304.069 400.081 304.152 400.329 304.29C400.384 304.317 400.412 304.345 400.467 304.372C400.494 304.4 400.522 304.4 400.549 304.427C400.604 304.455 400.659 304.483 400.742 304.538C400.99 304.675 401.293 304.841 401.624 305.061C405.977 307.568 417.52 314.29 421.845 317.651C422.038 317.927 422.286 318.12 422.507 318.313Z" fill="#FF4320"/>
<path d="M262.662 370.134L326.495 363.577C326.605 363.109 326.688 362.641 326.798 362.172L263.213 368.702C263.02 369.17 262.827 369.666 262.662 370.134Z" fill="white"/>
<path d="M275.748 335.256L333.548 329.333C333.658 328.864 333.741 328.396 333.851 327.928L276.299 333.823C276.106 334.292 275.913 334.76 275.748 335.256Z" fill="white"/>
<path d="M269.219 352.667L330.022 346.441C330.132 345.973 330.214 345.504 330.325 345.036L269.77 351.235C269.577 351.703 269.384 352.199 269.219 352.667Z" fill="white"/>
<path d="M348.838 343.328L349.527 343.934L400.439 338.176C401.403 337.625 402.367 337.047 403.332 336.468L348.783 342.612L348.838 343.328Z" fill="white"/>
<path d="M366.36 359.252L367.049 359.858L375.506 358.894C375.727 358.426 376.002 357.93 376.305 357.406L366.305 358.536L366.36 359.252Z" fill="white"/>
<path d="M282.25 317.899L337.046 312.279C337.157 311.811 337.239 311.315 337.349 310.874L282.801 316.467C282.608 316.935 282.415 317.403 282.25 317.899Z" fill="white"/>
<path d="M323.024 380.273L267.841 385.039C269.329 385.452 270.844 385.81 272.415 386.031L298.091 383.827C299.91 383.606 301.728 383.441 303.546 383.358L322.721 381.705C322.804 381.209 322.914 380.741 323.024 380.273Z" fill="white"/>
<path d="M381.843 240.925L342.364 244.975L339.664 245.25C341.069 244.644 342.392 244.065 343.686 243.459L346.138 243.211L381.43 239.602L381.843 240.925Z" fill="white"/>
<path d="M401.541 305.116C400.494 304.51 399.861 304.152 399.861 304.152L399.806 303.932L341.84 310.792L342.006 312.169L401.541 305.116Z" fill="white"/>
<path d="M422.507 318.313C422.287 318.12 422.039 317.927 421.763 317.707L343.631 326.523L343.797 327.9L422.094 319.057C422.231 318.809 422.369 318.561 422.507 318.313Z" fill="white"/>
<path d="M386.086 255.802L302.251 264.397C302.086 264.866 301.893 265.362 301.7 265.83L386.444 257.124L386.086 255.802Z" fill="white"/>
<path d="M395.342 288.228L289.275 299.11C289.082 299.579 288.916 300.075 288.724 300.543L395.7 289.578L395.342 288.228Z" fill="white"/>
<path d="M390.714 272.001L295.777 281.726C295.612 282.195 295.419 282.69 295.226 283.159L391.1 273.323L390.714 272.001Z" fill="white"/>
<path d="M414.82 393.359L459.258 335.834L505.68 366.911L425.509 485.155L427.19 403.773L414.82 393.359Z" fill="#6068DB"/>
<path d="M243.018 421.873L320.461 424.325L310.819 480.83H166.484L235.717 439.064L243.018 421.873Z" fill="#6068DB"/>
<path d="M509.785 409.668C509.978 409.779 510.253 409.724 510.363 409.531L528.078 381.375C528.216 381.182 528.133 380.906 527.94 380.769L495.817 359.28V279.495C495.817 279.247 495.624 279.054 495.376 279.054H437.907C437.659 279.054 437.466 279.247 437.466 279.495V320.214L404.654 298.256L382.945 219.987L421.57 225.359C422.176 225.442 422.81 225.497 423.416 225.497C429.918 225.497 435.593 220.703 436.502 214.091C437.521 206.845 432.452 200.178 425.206 199.159L394.24 194.861C396.692 184.75 394.598 174.199 392.312 166.925C389.722 158.688 386.333 152.792 386.141 152.434C383.33 146.979 380.3 141.882 377.159 137.227C385.452 138.108 392.091 136.455 394.984 130.256C405.315 107.968 390.135 110.971 383.358 103.863C364.624 84.2203 347.268 92.6506 331.536 94.2761C315.805 95.9015 307.843 86.5896 297.292 87.7743C278.999 89.813 279.853 101.659 280.128 103.588C280.101 103.836 280.073 104.084 280.046 104.304C280.018 104.662 279.439 111.963 285.831 112.762C286.134 112.79 286.547 112.817 287.043 112.817C288.366 112.817 290.322 112.569 292.223 111.412C295.308 112.927 297.953 113.809 300.295 114.305C297.65 115.269 294.923 116.316 292.112 117.446C280.266 122.267 273.213 129.237 269.411 134.251C268.171 135.877 267.207 137.364 266.436 138.714C261.752 128.355 255.306 119.016 247.206 110.944C238.583 102.321 228.527 95.5434 217.342 90.8048C205.743 85.9009 193.428 83.4214 180.755 83.4214C168.055 83.4214 155.767 85.9009 144.169 90.8048C132.984 95.5434 122.928 102.321 114.277 110.944C105.654 119.567 98.8767 129.623 94.1381 140.836C89.2342 152.434 86.7547 164.749 86.7547 177.422C86.7547 190.095 89.2342 202.41 94.1381 214.008C98.8767 225.194 105.654 235.249 114.277 243.873C122.9 252.496 132.956 259.273 144.169 264.012C147.062 265.251 150.01 266.326 152.985 267.235V479.866L144.527 484.549C144.389 484.632 144.307 484.77 144.307 484.935V505.598H117.197V303.766C117.197 303.546 117.005 303.353 116.784 303.353H59.2598C59.0394 303.353 58.8466 303.546 58.8466 303.766V505.598H38.1841V506.424H59.2598H116.729H144.555C144.61 506.452 144.637 506.452 144.692 506.452H261.835C261.89 506.452 261.918 506.452 261.973 506.424H275.72C275.775 506.452 275.803 506.452 275.858 506.452H306.493C306.549 506.452 306.576 506.452 306.631 506.424H437.797C437.852 506.452 437.879 506.452 437.935 506.452H495.404C495.459 506.452 495.486 506.452 495.542 506.424H525.433V505.598H495.845V429.119L501.492 421.267C501.603 421.129 501.603 420.964 501.52 420.799L495.845 409.668V401.982L509.785 409.668ZM291.341 110.971C289.22 112.101 287.098 112.073 285.941 111.908C280.238 111.192 280.844 104.635 280.9 104.359V104.332C281.037 101.88 282.58 99.0422 286.437 99.0422C290.57 99.0422 292.14 101.77 292.746 104.084C292.801 104.249 292.939 104.387 293.104 104.387C293.27 104.414 293.435 104.304 293.517 104.139C293.821 103.45 294.482 103.092 295.033 103.009C295.281 102.982 295.721 102.982 295.997 103.34C296.19 103.616 296.438 104.304 295.777 105.82C294.592 108.547 292.966 110.09 291.341 110.971ZM438.375 279.936H494.991V358.701L445.979 325.916L438.375 320.847V279.936ZM438.375 321.839L445.979 326.936L452.04 330.986L409.365 397.712L391.21 381.209L390.989 381.016L390.769 380.824L390.356 380.438L375.616 367.049C380.906 353.053 383.909 352.337 402.781 341.73C420.082 332.033 430.551 319.938 432.342 317.762L437.494 321.205L438.375 321.839ZM419.256 418.016C416.666 415.234 408.125 406.528 402.891 406.528C402.726 406.528 402.588 406.528 402.45 406.555C401.238 406.693 400.274 407.327 399.64 408.429C398.593 410.247 398.483 411.928 399.309 413.388C401.183 416.721 407.685 418.264 412.864 418.98C407.63 419.421 400.962 420.578 398.841 423.471C398.125 424.463 397.96 425.592 398.345 426.832C399.006 428.843 400.164 430.055 401.816 430.414C402.175 430.496 402.56 430.524 402.946 430.524C408.484 430.524 416.666 422.837 419.256 420.248L418.457 490.61C418.457 490.748 418.512 490.886 418.65 490.969L437.549 504.661V505.57H391.21V382.394L419.366 407.988L419.256 418.016ZM418.65 418.65C414.93 418.457 402.56 417.438 400.053 412.974C399.365 411.79 399.475 410.44 400.384 408.87C400.88 407.988 401.596 407.52 402.533 407.409C402.671 407.409 402.781 407.382 402.918 407.382C407.74 407.382 416.142 415.977 418.65 418.65ZM418.65 419.586C416.005 422.204 406.968 430.689 401.954 429.56C400.604 429.256 399.695 428.265 399.144 426.557C398.841 425.592 398.951 424.766 399.502 423.994C402.34 420.137 414.93 419.642 418.65 419.586ZM438.375 505.542V505.294L438.706 505.542H438.375ZM262.634 505.57L273.902 487.828L275.417 505.57H262.634ZM225.634 420.826C226.268 420.303 227.012 420.027 227.866 420.027C228.444 420.027 229.05 420.137 229.739 420.385C230.703 420.716 231.282 421.322 231.558 422.231C232.907 426.722 226.02 436.778 223.706 440.001C223.596 439.257 223.43 438.21 223.21 437.026C222.742 431.846 222.521 423.471 225.634 420.826ZM222.686 440.166C219.573 437.714 210.372 430.028 210.84 425.014C210.978 423.636 211.832 422.617 213.457 421.818C213.898 421.598 214.339 421.515 214.752 421.515C215.193 421.515 215.634 421.625 216.047 421.873C219.38 423.719 221.392 431.984 222.328 437.136C222.466 438.348 222.576 439.395 222.686 440.166ZM232.412 421.956C232.053 420.771 231.254 419.972 230.042 419.559C228.059 418.87 226.378 419.091 225.083 420.165C222.659 422.231 222.053 427.163 222.053 431.736C220.868 427.218 219.05 422.534 216.46 421.074C215.386 420.468 214.256 420.468 213.071 421.019C211.171 421.928 210.124 423.223 209.958 424.904C209.407 430.717 219.987 439.175 222.604 441.186L207.672 449.478V284.261C208.03 283.958 208.333 283.627 208.636 283.297C209.71 283.489 210.73 283.6 211.694 283.6C213.76 283.6 215.606 283.159 217.259 282.25C220.758 280.349 222.246 277.043 222.631 275.968C223.182 276.051 223.733 276.079 224.284 276.079C226.599 276.079 228.968 275.417 231.282 274.067C235.111 271.863 238.555 267.841 240.704 263.075C242.908 258.171 243.652 252.771 242.77 247.895C243.624 247.151 244.451 246.38 245.277 245.608C246.269 246.352 247.399 246.848 248.253 247.179C246.738 247.812 244.396 249.272 244.561 252.193C244.699 254.645 246.627 257.537 260.375 258.391C264.81 258.667 269.108 258.805 273.296 258.805C283.104 258.805 292.14 258.088 300.46 256.876L265.857 345.808H236.379C236.158 345.808 235.966 346 235.966 346.221V422.672L230.483 436.75L224.725 439.946C227.453 436.254 233.817 426.667 232.412 421.956ZM226.874 259.301C226.929 259.411 227.012 259.466 227.122 259.521C227.232 259.549 227.342 259.549 227.453 259.493C230.841 257.537 232.907 255.939 235.525 253.791C237.784 252.165 239.988 250.429 242.109 248.611C243.569 257.978 238.693 268.971 230.951 273.434C228.196 275.032 225.386 275.61 222.659 275.197C222.246 275.142 221.86 275.059 221.447 274.949C219.518 274.453 217.645 273.406 215.909 271.891C214.036 270.265 212.355 268.447 210.84 266.519C209.876 265.306 208.994 264.039 208.195 262.744C208.03 262.496 207.892 262.248 207.727 262C207.341 261.367 206.983 260.733 206.652 260.072C206.515 259.824 206.377 259.549 206.239 259.301C204.531 255.912 203.346 252.523 202.795 249.52C202.685 248.914 202.602 248.336 202.547 247.785C202.327 245.663 202.465 243.79 202.961 242.33C203.704 240.208 205.165 239.079 207.314 238.969C207.424 238.969 207.534 238.969 207.644 238.969C209.71 238.969 211.777 239.933 213.733 241.421C213.87 241.531 214.008 241.641 214.146 241.724C214.284 241.806 214.421 241.944 214.559 242.054C217.755 244.727 220.648 248.694 222.824 252.138C225.276 255.939 226.819 259.19 226.874 259.301ZM221.832 275.858C221.392 276.96 219.986 279.88 216.901 281.561C214.752 282.718 212.19 283.076 209.27 282.58C208.967 282.525 208.663 282.47 208.333 282.415C208.112 282.36 207.92 282.332 207.699 282.25C207.561 282.222 207.424 282.195 207.286 282.14C207.148 282.112 207.01 282.057 206.873 282.029C206.845 282.029 206.818 282.002 206.79 282.002C202.162 280.597 198.25 275.886 195.136 270.293C194.393 268.971 193.704 267.593 193.07 266.216C192.96 265.968 192.822 265.72 192.712 265.444C192.684 265.362 192.657 265.306 192.602 265.224C192.189 264.315 191.803 263.378 191.417 262.469C188.965 256.435 187.312 250.595 186.568 247.619C186.348 246.765 186.265 245.911 186.293 245.085C186.293 244.699 186.348 244.313 186.403 243.928C186.789 241.31 188.276 239.079 190.398 238.335C190.921 238.142 191.445 238.06 191.968 238.06C195.302 238.06 198.828 241.586 201.666 247.895C201.666 247.922 201.693 247.95 201.721 247.978L201.776 248.033C202.051 250.595 202.85 253.488 204.09 256.518C204.503 257.537 204.972 258.529 205.468 259.493C205.605 259.769 205.743 260.072 205.908 260.347C206.239 260.954 206.57 261.56 206.928 262.138C207.066 262.386 209.104 265.499 210.041 266.739C211.666 268.833 213.457 270.761 215.386 272.469C217.369 274.26 219.573 275.39 221.832 275.858ZM213.733 240.291C211.639 238.831 209.462 237.949 207.258 238.06C204.779 238.17 203.016 239.52 202.189 241.972C201.804 243.101 201.611 244.424 201.611 245.884C199.93 242.605 198.084 240.208 196.101 238.748C193.566 236.902 191.417 237.068 190.095 237.536C187.836 238.335 186.21 240.511 185.659 243.156C185.274 242.771 184.86 242.44 184.475 242.164C181.94 240.319 179.791 240.484 178.469 240.952C174.942 242.192 173.014 246.793 174.143 251.228C174.915 254.204 176.127 258.502 177.807 263.075C166.181 262.689 155.161 259.962 145.161 255.388V130.697H215.165L215.055 139.816L213.733 240.291ZM180.783 268.227C180.342 267.235 179.929 266.216 179.516 265.224C179.24 264.508 178.965 263.791 178.689 263.102C176.816 258.088 175.548 253.543 174.915 251.008C173.895 247.068 175.659 242.798 178.717 241.724C179.24 241.531 179.764 241.448 180.287 241.448C181.995 241.448 183.786 242.385 185.494 244.176C185.356 245.36 185.439 246.6 185.769 247.812C186.706 251.421 188.276 256.931 190.536 262.551C190.894 263.433 191.252 264.315 191.665 265.224C191.72 265.362 191.775 265.499 191.858 265.637C191.968 265.885 192.078 266.161 192.216 266.408C192.85 267.786 193.511 269.136 194.227 270.431C197.478 276.354 201.583 281.313 206.542 282.801C206.652 282.828 206.763 282.856 206.873 282.883C207.01 282.938 207.148 282.966 207.286 282.994C207.424 283.021 207.561 283.076 207.699 283.104C207.699 283.104 207.699 283.104 207.727 283.104C207.727 283.104 207.727 283.104 207.699 283.131C207.561 283.269 207.451 283.379 207.314 283.517C207.314 283.517 207.314 283.545 207.286 283.545C207.148 283.655 207.01 283.793 206.873 283.903C203.897 286.355 199.958 286.878 195.136 285.418C189.874 283.848 185.549 277.952 182.271 271.367C181.885 270.569 181.499 269.77 181.141 268.971L180.783 268.227ZM242.33 406.5L236.847 420.606V346.689H265.582L263.708 351.483L242.33 406.5ZM242.33 408.897L253.515 380.135C267.703 389.529 279.77 389.777 298.118 389.529C314.4 389.309 322.665 396.61 324.456 398.428L321.233 417.327L237.288 421.846L242.33 408.897ZM332.886 354.293V505.57H307.017L332.886 354.293ZM340.6 309.221L340.683 309.993L343.989 339.388C343.989 339.499 344.044 339.581 344.127 339.664L390.356 381.65V505.57H340.683H333.713V349.444L340.6 309.221ZM403.883 298.642C403.91 298.752 403.965 298.835 404.076 298.89L425.372 313.133C423.967 316.081 417.024 327.156 408.566 333.107C399.668 339.361 386.581 344.843 379.666 352.42C374.074 358.536 373.743 363.688 373.798 365.423L344.871 339.14L341.151 306.136V306.108L338.396 273.296L337.515 273.379L340.27 306.108L333.74 344.265L332.914 349.086L325.668 391.458C319.084 382.945 312.858 383.771 306.273 383.248C299.578 382.697 281.451 385.149 274.205 385.149C267.648 385.176 256.27 379.749 254.093 378.675L264.673 351.455L266.546 346.662L266.877 345.835L301.479 256.766C302.774 256.573 304.069 256.353 305.336 256.132C320.158 253.543 332.473 249.41 342.364 244.975C343.686 244.396 344.953 243.79 346.165 243.211C348.838 241.917 351.29 240.622 353.549 239.327C362.2 234.423 370.051 228.637 376.526 222.356C377.517 221.419 378.454 220.455 379.363 219.491L381.98 219.849L403.883 298.642ZM393.441 194.723C393.276 195.44 393.083 196.128 392.863 196.817C391.155 202.3 387.408 209.049 381.319 216.13C380.934 216.571 380.52 217.039 380.107 217.48C379.556 218.086 378.978 218.719 378.371 219.353C377.71 220.042 377.022 220.758 376.305 221.447C370.299 227.343 362.668 233.238 353.191 238.611C350.353 240.208 347.212 241.861 343.741 243.459C342.446 244.065 341.096 244.672 339.719 245.25C330.407 249.217 319.084 252.881 305.695 255.251C304.427 255.471 303.132 255.692 301.838 255.884C301.507 255.939 301.176 255.995 300.846 256.022C288.917 257.785 275.472 258.529 260.457 257.592C247.206 256.794 245.525 254.121 245.415 252.193C245.222 248.776 249.107 247.757 249.658 247.619C250.402 247.702 256.848 248.446 263.516 248.446C266.849 248.446 270.265 248.253 273.02 247.702L272.855 246.903C264.562 248.556 250.402 246.876 249.685 246.793C249.493 246.738 247.481 246.214 245.911 245.057C244.699 244.176 243.735 242.936 243.955 241.283C244.506 237.481 248.418 237.068 250.016 237.068C250.402 237.068 250.65 237.095 250.705 237.095C250.87 237.095 251.752 237.178 253.129 237.261C255.609 237.426 259.603 237.646 263.516 237.646C267.152 237.646 270.734 237.453 273.02 236.902L272.827 236.103C268.474 237.205 258.722 236.792 253.79 236.489C252.082 236.379 250.953 236.296 250.787 236.269C250.595 236.241 247.041 235.635 245.415 233.541C245.332 233.459 245.277 233.348 245.195 233.266C244.561 232.274 244.423 231.117 244.809 229.795C245.222 228.334 247.178 227.783 250.154 227.591C251.862 227.48 253.873 227.453 256.16 227.453C257.454 227.453 258.832 227.453 260.32 227.425C262.055 227.398 263.901 227.315 265.83 227.205C266.849 227.15 267.896 227.04 268.97 226.929C272.497 226.544 276.216 225.91 279.963 224.808C280.541 224.643 281.423 224.395 282.497 224.092C288.834 222.328 303.656 218.196 317.761 211.97C318.34 211.722 318.919 211.446 319.497 211.198C334.898 204.173 344.843 196.597 349.168 188.607C349.499 187.974 349.802 187.34 350.078 186.706C350.821 184.971 351.152 183.207 351.042 181.362C350.987 180.039 350.684 178.717 350.188 177.339C350.05 176.926 349.857 176.485 349.664 176.072C349.334 175.328 348.921 174.557 348.452 173.785C348.397 173.703 348.342 173.62 348.287 173.537C348.7 171.995 350.188 168.083 354.678 165.796C360.381 162.903 366.552 164.749 374.845 164.391C381.843 164.088 387.16 160.809 388.785 159.68C389.694 161.829 390.686 164.363 391.568 167.201C393.827 174.336 395.893 184.75 393.441 194.723ZM270.789 204.366L290.928 207.176C289.137 209.628 286.41 213.044 282.883 216.405C279.302 219.877 274.425 223.678 268.722 226.103C265.967 226.378 263.323 226.516 260.843 226.571C263.295 222.549 265.472 218.361 267.317 213.981C268.667 210.813 269.797 207.617 270.789 204.366ZM317.954 210.923C317.789 211.005 317.596 211.088 317.431 211.171C315.64 211.97 313.822 212.714 312.031 213.457C299.744 218.416 287.787 221.722 282.305 223.265C281.203 223.568 280.349 223.816 279.742 223.981C276.905 224.808 274.122 225.387 271.45 225.772C276.244 223.348 280.349 220.042 283.517 217.011C287.236 213.43 290.101 209.793 291.892 207.314L317.954 210.923ZM292.415 118.189C295.694 116.867 298.835 115.655 301.92 114.58C317.293 109.181 330.021 106.894 339.912 107.831C346.992 108.492 355.092 113.203 363.357 121.468C367.765 125.876 372.09 131.138 376.112 137.061C379.391 141.827 382.504 147.034 385.369 152.572C384.873 153.288 384.267 153.922 383.523 154.5C383.11 154.803 382.614 155.106 381.98 155.492C381.898 155.547 381.815 155.602 381.733 155.63C377.38 157.917 370.217 158.991 360.381 159.79C358.205 159.983 356.387 160.396 354.871 161.002C354.431 161.167 354.017 161.333 353.632 161.553C353.163 161.801 352.722 162.049 352.337 162.325C348.259 164.969 347.102 168.992 346.772 171.03L332.969 147.723L332.253 148.136L346.689 172.518C346.689 172.518 346.689 172.518 346.689 172.546C346.689 172.546 346.689 172.546 346.689 172.573C347.598 173.84 348.314 175.08 348.893 176.265C349.086 176.706 349.279 177.119 349.444 177.532C350.601 180.618 350.546 183.483 349.334 186.321C349.031 187.009 348.7 187.726 348.287 188.414L297.788 181.389L282.745 162.628L282.112 163.151L296.603 181.224L274.701 178.193C274.701 177.918 274.701 177.642 274.701 177.367C274.701 164.666 272.221 152.379 267.317 140.78C267.152 140.395 266.987 140.009 266.822 139.651C270.045 133.948 277.401 124.278 292.415 118.189ZM94.9646 177.394C94.9646 130.119 133.424 91.6588 180.7 91.6588C227.976 91.6588 266.436 130.119 266.436 177.394C266.436 195.743 260.65 212.769 250.787 226.736C247.013 226.929 244.616 227.535 244.038 229.602C243.597 231.172 243.762 232.55 244.534 233.734C244.644 233.899 244.754 234.065 244.864 234.203C238.748 241.09 231.558 247.013 223.54 251.642C221.199 247.95 218.058 243.652 214.532 240.925L215.992 130.311C215.992 130.201 215.937 130.091 215.882 130.008C215.799 129.926 215.689 129.871 215.579 129.871H144.72C144.5 129.871 144.307 130.064 144.307 130.284V255.003C115.186 241.283 94.9646 211.639 94.9646 177.394ZM153.756 267.455C162.462 270.045 171.471 271.367 180.7 271.367C180.893 271.367 181.086 271.367 181.279 271.367C184.695 278.338 189.213 284.509 194.861 286.189C196.707 286.74 198.442 287.016 200.04 287.016C202.107 287.016 203.952 286.575 205.605 285.666C206.046 285.446 206.432 285.17 206.818 284.895V449.891L160.561 475.54L153.729 479.315V267.455H153.756ZM145.133 485.183L152.93 480.858L153.756 480.389L160.589 476.615L206.845 450.966L207.258 450.746L207.672 450.525L222.549 442.288L213.43 460.691L214.201 461.077L223.458 442.425L226.543 467.22L227.425 467.11L224.229 441.351L231.089 437.549C231.172 437.494 231.254 437.411 231.282 437.329L235.993 425.179L236.324 424.325H320.021L306.135 505.598H286.437H285.611H276.299L274.673 486.505C274.646 486.313 274.508 486.175 274.343 486.12C274.15 486.065 273.957 486.147 273.874 486.313L261.642 505.598H236.847H236.021H207.672H206.845H153.756H152.93H145.133V485.183ZM59.6731 505.57V304.152H116.316V505.57H59.6731ZM440.91 505.542L445.979 498.49L494.991 430.303V505.542H440.91ZM494.991 407.933L490.417 398.952L494.991 401.486V407.933ZM495.431 400.742L494.991 400.494L489.591 397.519C489.425 397.436 489.205 397.464 489.067 397.574C488.93 397.712 488.902 397.905 488.985 398.097L494.991 409.889L495.431 410.743L495.872 411.597L500.638 420.964L495.872 427.604L495.431 428.21L494.991 428.816L445.979 497.002L439.973 505.377L438.375 504.22L437.494 503.586L419.311 490.39L420.082 422.011L424.215 435.868L425.041 435.621L420.495 420.303L434.298 431.13L434.849 430.441L420.137 418.898L420.275 407.768C420.275 407.63 420.22 407.52 420.137 407.437L410.88 399.007L459.341 335.779L495.046 359.665L495.486 359.968L495.927 360.271L527.197 381.209L509.923 408.677L495.927 400.935L495.431 400.742Z" fill="#6C6B80"/>
<path d="M153.371 123.479L188.855 97.0034L186.376 121.606L218.94 123.479L183.924 146.731L193.511 174.915L166.54 154.17L158.164 187.863L148.577 162.214L121.302 181.747L130.89 152.902L109.208 145.161L137.722 133.7L134.003 108.795L153.371 123.479Z" fill="#BBF3F7"/>
</svg>
