<svg width="160" height="31" viewBox="0 0 160 31" fill="none" xmlns="http://www.w3.org/2000/svg">
<g clip-path="url(#clip0_436_3788)">
<path d="M32.0648 15.0234C32.0648 6.72885 25.7492 0 17.521 0C12.0536 0 7.30795 3.09415 4.81783 7.6981L11.9093 15.0234C11.9093 11.8174 14.5257 9.22654 17.521 9.22654C20.6968 9.22654 23.1328 11.8174 23.1328 15.0234C23.1328 18.2294 20.6788 20.8203 17.521 20.8203H17.503H5.43134C2.43598 20.8203 0 23.3366 0 26.4308V30.0468H17.521C25.6951 30.0468 32.0648 23.318 32.0648 15.0234Z" fill="#0DBDFF"/>
<path d="M98.3236 13.2527H105.108C107.743 13.2527 109.114 11.9665 109.114 9.56205C109.114 7.12028 107.743 5.83415 105.108 5.83415H98.3236V13.2527ZM102.239 19.1054H98.3236V30.0468H92.2427V3.37374C92.2427 1.5098 93.7043 0 95.5267 0H105.289C111.586 0 115.412 3.91429 115.412 9.52477C115.412 14.0355 112.958 17.4652 108.699 18.6767L116.278 30.0468H108.988L102.239 19.1054ZM159.999 29.2453C158.808 30.0468 157.401 30.606 155.885 30.606C151.699 30.606 149.732 27.6423 149.732 23.4298V1.56571L155.488 0.149116V23.4857C155.488 24.66 156.047 25.3869 157.058 25.3869C157.365 25.3869 157.707 25.3124 158.032 25.1633L159.999 29.2453ZM149.948 29.2453C148.757 30.0468 147.35 30.606 145.834 30.606C141.648 30.606 139.681 27.6423 139.681 23.4298V4.04476L145.437 2.57225V23.4857C145.437 24.66 145.997 25.3869 147.007 25.3869C147.314 25.3869 147.657 25.3124 147.982 25.1633L149.948 29.2453ZM131.886 19.18C131.886 15.6944 129.721 13.2899 126.473 13.2899C123.225 13.2899 121.059 15.6571 121.059 19.18C121.059 22.7029 123.225 25.0701 126.473 25.0701C129.721 25.0701 131.886 22.7029 131.886 19.18ZM115.177 19.18C115.177 12.4884 119.923 7.80994 126.473 7.80994C133.023 7.80994 137.805 12.4512 137.805 19.18C137.805 25.9275 133.005 30.606 126.473 30.606C119.923 30.606 115.177 25.9275 115.177 19.18ZM48.8461 17.9125L52.9963 6.43061L57.1465 17.9125H48.8461ZM48.6295 2.1249L37.9834 30.0468H44.4433L46.7169 23.7467H59.2577L61.5312 30.0468H67.9911L56.533 0H51.679C50.3438 0 49.1348 0.838776 48.6295 2.1249ZM78.3485 25.0701C75.1367 25.0701 72.9352 22.7029 72.9352 19.18C72.9352 15.6571 75.1367 13.2899 78.3485 13.2899C81.5604 13.2899 83.7618 15.6571 83.7618 19.18C83.7618 22.7961 81.5063 25.0701 78.3485 25.0701ZM83.3829 10.5127C81.9574 8.79783 79.7921 7.80994 77.1757 7.80994C71.5458 7.80994 67.0528 12.4512 67.0528 19.1427C67.0528 25.8902 71.5458 30.606 77.0133 30.606C79.9364 30.606 82.2281 29.2826 83.6897 27.0831L83.9423 30.0468H89.103V0H86.667C84.8625 0 83.3829 1.5098 83.3829 3.37374V10.5127Z" fill="white"/>
</g>
<defs>
<clipPath id="clip0_436_3788">
<rect width="160" height="30.6667" fill="white"/>
</clipPath>
</defs>
</svg>
