<svg width="160" height="30" viewBox="0 0 160 30" fill="none" xmlns="http://www.w3.org/2000/svg">
<g clip-path="url(#clip0_436_3781)">
<path d="M86.7041 8.77641C92.5841 8.77641 97.0245 13.009 97.0245 18.911C97.0245 24.7751 92.5841 29.0455 86.7041 29.0455C80.8242 29.0455 76.3838 24.7751 76.3838 18.911C76.3838 13.009 80.8242 8.77641 86.7041 8.77641ZM150.76 8.77641C156.051 8.77641 159.053 11.9995 159.882 15.2225L155.182 16.7752C154.709 15.1837 153.484 13.5532 150.879 13.5532C148.193 13.5532 145.943 15.4557 145.943 18.911C145.943 22.3672 148.233 24.3086 150.918 24.3086C153.603 24.3086 154.947 22.5615 155.38 21.0856L160 22.6005C159.131 25.7837 156.091 29.0455 150.918 29.0455C145.192 29.0455 140.691 24.7751 140.691 18.911C140.691 13.009 145.113 8.77641 150.76 8.77641ZM52.4881 8.77606C58.6904 8.77606 60.9958 12.2 60.9958 16.0513V25.4665C60.9958 26.478 61.1151 27.84 61.2346 28.5011H56.3843C56.2648 27.9948 56.1853 26.9444 56.1853 26.2055C55.1913 27.7232 53.3218 29.0452 50.4197 29.0452C46.2449 29.0452 43.7009 26.2833 43.7009 23.2877C43.7009 19.8638 46.2847 17.9575 49.5451 17.4912L54.3566 16.7902C55.469 16.6345 55.8271 16.0903 55.8271 15.4293C55.8271 14.0673 54.7535 12.9389 52.5269 12.9389C50.2207 12.9389 48.9482 14.3788 48.79 16.0513L44.0979 15.0788C44.4162 12.0832 47.2388 8.77606 52.4881 8.77606ZM71.3036 3.76135V9.42044H75.2171V13.9622H71.3036V21.8916C71.3036 23.5475 72.094 24.0859 73.5968 24.0859C74.2289 24.0859 74.9402 24.0089 75.2171 23.9318V28.1662C74.7423 28.3589 73.7936 28.6277 72.2522 28.6277C68.4564 28.6277 66.0852 26.4343 66.0852 22.7778V13.9622H62.5664V9.42044H63.5546C65.6103 9.42044 66.5591 8.11138 66.5591 6.41799V3.76135H71.3036ZM122.525 8.87622C126.182 8.87622 129.679 11.0113 129.679 16.1354V28.5185H124.494V17.1835C124.494 15.126 123.449 13.5738 120.997 13.5738C118.706 13.5738 117.339 15.2816 117.339 17.3389V28.5185H112.035V17.1835C112.035 15.126 110.95 13.5738 108.537 13.5738C106.207 13.5738 104.84 15.2427 104.84 17.3389V28.5185H99.4942V9.42019H104.599V11.7486C105.685 9.88548 108.216 8.87622 110.386 8.87622C113.079 8.87622 115.25 10.0021 116.254 12.0594C117.822 9.73104 119.912 8.87622 122.525 8.87622ZM138.056 9.40323V28.4186H132.952V9.40323H138.056ZM55.9078 19.851L51.6114 20.5307C50.2949 20.7307 49.2495 21.4893 49.2495 23.0068C49.2495 24.1653 50.0624 25.284 51.7276 25.284C53.8948 25.284 55.9078 24.2054 55.9078 20.7307V19.851ZM86.7041 13.3735C84.1079 13.3735 81.7105 15.1973 81.7105 18.8061C81.7105 22.3768 84.1079 24.2395 86.7041 24.2395C89.3016 24.2395 91.6979 22.4157 91.6979 18.8061C91.6979 15.1973 89.3016 13.3735 86.7041 13.3735ZM135.504 0C137.31 0 138.722 1.4139 138.722 3.17315C138.722 4.85492 137.31 6.26882 135.504 6.26882C133.737 6.26882 132.286 4.85492 132.286 3.17315C132.286 1.4139 133.737 0 135.504 0Z" fill="white"/>
<path d="M23.2054 28.573H4.5668C2.04463 28.573 0 26.6343 0 24.243C0 21.8512 2.04425 19.912 4.5668 19.9107L15.128 19.9058C16.8654 19.9049 18.4707 20.784 19.3383 22.2111L23.2054 28.573Z" fill="#1E6EFA"/>
<path d="M3.45972 17.4703L12.779 2.16572C14.0401 0.0947165 16.8331 -0.614864 19.0173 0.580834C21.202 1.77672 21.9512 4.42491 20.691 6.49682L15.4149 15.1713C14.5471 16.5984 12.9414 17.477 11.204 17.4758L3.45972 17.4703Z" fill="#FF3C5A"/>
<path d="M23.5023 6.80811L32.8216 22.1126C34.0828 24.1837 33.3344 26.8318 31.1501 28.0276C28.9656 29.2234 26.1721 28.5144 24.9098 26.4438L19.6245 17.7743C18.7551 16.3481 18.7554 14.5903 19.6251 13.1643L23.5023 6.80811Z" fill="#FFC5CE"/>
</g>
<defs>
<clipPath id="clip0_436_3781">
<rect width="160" height="29.3333" fill="white"/>
</clipPath>
</defs>
</svg>
