<svg width="160" height="28" viewBox="0 0 160 28" fill="none" xmlns="http://www.w3.org/2000/svg">
<path d="M152.574 6.65432C157.062 6.65432 159.751 9.47655 159.751 14.0707C159.751 14.6093 159.694 15.2072 159.694 15.2637H149.3C149.388 17.1488 151.013 18.5222 152.963 18.5222C154.795 18.5222 155.799 17.6201 156.272 16.3409L159.546 17.305C158.807 19.7771 156.502 21.8426 152.927 21.8426C148.939 21.8426 145.425 19.0204 145.425 14.1946C145.425 9.61658 148.852 6.65432 152.574 6.65432ZM70.564 7.09597V15.3499C70.564 16.9495 71.3845 18.2314 73.2225 18.2314C74.9647 18.2314 75.9575 17.068 75.9575 15.4091V7.09597H79.885V18.8184C79.8868 19.6831 79.9361 20.547 80.0327 21.4064H76.2857C76.2048 20.8959 76.1655 20.3799 76.1681 19.8633C75.3695 21.2098 73.6847 21.7834 72.1503 21.7834C68.6331 21.7834 66.6256 19.2547 66.6256 16.1282V7.09597H70.564ZM110.805 0.350089L110.807 18.8184C110.807 19.7771 110.868 20.8247 110.925 21.4064H107.175C107.078 20.8586 107.029 20.3036 107.028 19.7475C106.377 20.8839 104.9 21.7565 102.95 21.7565C98.8143 21.7565 95.8604 18.5572 95.8604 14.2162C95.8604 10.0286 98.7267 6.74319 102.832 6.74319C105.343 6.74319 106.524 7.76113 106.935 8.51516V0.350089H110.805ZM141.456 2.82223V7.09597H144.383V10.5295H141.456V16.5186C141.456 17.7709 142.047 18.1775 143.171 18.1775C143.578 18.182 143.984 18.1432 144.383 18.0617V21.2744C143.673 21.5315 142.92 21.6504 142.165 21.6245C139.331 21.6245 137.559 19.9656 137.559 17.2027V10.5295H135.658V7.09597C137.192 7.09597 137.901 6.10765 137.901 4.82849V2.82223H141.456ZM57.8543 0.78635C61.9295 0.78635 64.2324 3.14 64.2324 6.33924C64.2324 8.46399 62.9332 10.1794 61.191 10.7611C63.2286 11.2566 64.8833 13.0878 64.8833 15.6461C64.8833 18.9908 62.3425 21.4064 58.415 21.4064H50.3247V0.78635H57.8543ZM86.9743 7.09597V21.4064H83.0495V7.09597H86.9743ZM94.0662 0.350089V21.4064H90.1387V0.350089H94.0662ZM117.681 0.350089V12.42L122.702 7.09597H127.844L122.024 13.1174L127.962 21.4064H123.148L119.319 15.937L117.678 17.6255V21.3956H113.753V0.350089H117.681ZM133.434 7.09597V21.4064H129.504V7.09597H133.434ZM103.423 10.209C101.415 10.209 99.829 11.6632 99.829 14.2216C99.829 16.7799 101.355 18.2933 103.423 18.2933C105.43 18.2933 106.997 16.7826 106.997 14.1946C106.997 11.6067 105.43 10.209 103.423 10.209ZM57.7093 12.6219H54.337V18.0617H57.6464C59.6266 18.0617 60.8081 17.0438 60.8081 15.3849C60.8081 13.726 59.7442 12.6219 57.7093 12.6219ZM149.382 12.6219H155.881C155.823 11.1974 154.877 9.8024 152.632 9.8024C150.959 9.74142 149.531 10.9806 149.382 12.6219ZM57.2088 4.15794H54.337V9.30689H57.2334C59.0932 9.30689 60.2174 8.28895 60.2174 6.71895C60.2174 5.14895 59.1835 4.15794 57.2088 4.15794ZM84.9996 1.92665e-06C86.3329 0.000167763 87.4156 1.06083 87.4225 2.3736C87.4294 3.68637 86.3579 4.75803 85.0247 4.77181C83.6915 4.78558 82.5974 3.7363 82.5763 2.42367C82.5653 1.78415 82.8158 1.16711 83.2715 0.711308C83.7273 0.255503 84.35 -0.000810751 84.9996 1.92665e-06ZM131.454 1.92665e-06C132.788 0.000167763 133.87 1.06083 133.877 2.3736C133.884 3.68637 132.813 4.75803 131.479 4.77181C130.146 4.78558 129.052 3.7363 129.031 2.42367C129.02 1.78415 129.271 1.16711 129.726 0.711308C130.182 0.255503 130.805 -0.000810751 131.454 1.92665e-06Z" fill="white"/>
<path d="M0 1.05566L13.6752 7.65343V21.1183L0 14.5205V1.05566Z" fill="#30F2A2"/>
<path d="M27.4873 1.05566L41.0258 7.65343L27.4873 14.5205V1.05566Z" fill="#30F2A2"/>
<path d="M27.4873 1.05566L13.6753 7.65343V21.1183L27.4873 14.5205V1.05566Z" fill="#14CC80"/>
<path d="M41.0258 7.65332L27.4873 14.5204V27.9852L41.0258 21.1181V7.65332Z" fill="#14CC80"/>
</svg>
