<svg width="106" height="35" viewBox="0 0 106 35" fill="none" xmlns="http://www.w3.org/2000/svg">
<path d="M102.698 21.3901L105.639 23.3627C104.685 24.7774 102.402 27.2043 98.4553 27.2043C93.5544 27.2043 89.9045 23.3887 89.9045 18.5349C89.9045 13.3696 93.5931 9.86548 98.0426 9.86548C102.518 9.86548 104.71 13.4474 105.42 15.3812L105.807 16.3675L94.2766 21.1694C95.1536 22.9085 96.5207 23.791 98.4553 23.791C100.39 23.791 101.731 22.8306 102.698 21.3901ZM93.6576 18.2623L101.357 15.0438C100.932 13.9666 99.6676 13.2009 98.1586 13.2009C96.237 13.2009 93.5673 14.914 93.6576 18.2623Z" fill="#FF302F"/>
<path d="M84.3459 1.02734H88.0603V26.4126H84.3459V1.02734Z" fill="#20B15A"/>
<path d="M78.4907 10.5403H82.0761V25.9583C82.0761 32.3565 78.323 34.9911 73.8865 34.9911C69.7078 34.9911 67.1929 32.1619 66.2514 29.8647L69.5402 28.489C70.1334 29.9037 71.565 31.5778 73.8865 31.5778C76.7367 31.5778 78.4907 29.7998 78.4907 26.4774V25.2315H78.3617C77.5105 26.2698 75.8855 27.2042 73.822 27.2042C69.5144 27.2042 65.5679 23.4276 65.5679 18.5608C65.5679 13.668 69.5144 9.85242 73.822 9.85242C75.8726 9.85242 77.5105 10.7739 78.3617 11.7862H78.4907V10.5403ZM78.7486 18.5608C78.7486 15.4979 76.7238 13.2657 74.1444 13.2657C71.5392 13.2657 69.3467 15.4979 69.3467 18.5608C69.3467 21.5847 71.5392 23.778 74.1444 23.778C76.7238 23.7909 78.7486 21.5847 78.7486 18.5608Z" fill="#3686F7"/>
<path d="M45.1775 18.496C45.1775 23.4926 41.3083 27.1654 36.5622 27.1654C31.8161 27.1654 27.947 23.4796 27.947 18.496C27.947 13.4734 31.8161 9.8136 36.5622 9.8136C41.3083 9.8136 45.1775 13.4734 45.1775 18.496ZM41.4115 18.496C41.4115 15.3812 39.1674 13.2398 36.5622 13.2398C33.957 13.2398 31.713 15.3812 31.713 18.496C31.713 21.5848 33.957 23.7521 36.5622 23.7521C39.1674 23.7521 41.4115 21.5848 41.4115 18.496Z" fill="#FF302F"/>
<path d="M63.9943 18.5349C63.9943 23.5315 60.1252 27.2043 55.3791 27.2043C50.633 27.2043 46.7639 23.5315 46.7639 18.5349C46.7639 13.5123 50.633 9.86548 55.3791 9.86548C60.1252 9.86548 63.9943 13.4994 63.9943 18.5349ZM60.2155 18.5349C60.2155 15.4201 57.9714 13.2787 55.3662 13.2787C52.761 13.2787 50.5169 15.4201 50.5169 18.5349C50.5169 21.6237 52.761 23.791 55.3662 23.791C57.9843 23.791 60.2155 21.6107 60.2155 18.5349Z" fill="#FFBA40"/>
<path d="M13.7862 23.4016C8.38236 23.4016 4.15213 19.015 4.15213 13.5772C4.15213 8.13934 8.38236 3.75273 13.7862 3.75273C16.7009 3.75273 18.829 4.90778 20.4024 6.38729L22.9947 3.77868C20.8022 1.66325 17.8746 0.0539551 13.7862 0.0539551C6.38332 0.0539551 0.154053 6.12773 0.154053 13.5772C0.154053 21.0266 6.38332 27.1004 13.7862 27.1004C17.7843 27.1004 20.8022 25.7766 23.1624 23.3108C25.587 20.8709 26.335 17.4447 26.335 14.6673C26.335 13.7978 26.2319 12.9023 26.1158 12.2404H13.7862V15.8484H22.5691C22.3112 18.1066 21.6018 19.651 20.5572 20.7022C19.2932 21.987 17.2942 23.4016 13.7862 23.4016Z" fill="#3686F7"/>
</svg>
