<svg width="138" height="20" viewBox="0 0 138 20" fill="none" xmlns="http://www.w3.org/2000/svg">
<path d="M10.35 0.218803C16.054 0.218803 20.7 4.63863 20.7 10.1087C20.7 15.5788 16.054 19.9986 10.35 19.9986C4.646 19.9986 0 15.6226 0 10.1087C0 4.59487 4.646 0.218803 10.35 0.218803ZM91.494 0V17.3292C91.494 18.6421 92.046 18.9921 93.104 19.2547L93.15 19.4735H87.308V17.3292C86.618 18.9046 85.192 19.8673 83.352 19.8673C80.224 19.8673 78.154 17.1542 78.154 13.1282C78.154 10.8526 78.844 8.92718 80.132 7.48308C81.374 6.08273 83.076 5.3388 84.962 5.3388C85.882 5.3388 86.664 5.51385 87.308 5.90769V3.54462C87.308 3.01949 87.17 2.6694 86.894 2.40684C86.526 2.10051 85.928 1.96923 85.008 2.05675H84.962V1.83795L91.494 0ZM113.666 5.38256V17.3292C113.666 18.6421 114.218 18.9921 115.276 19.2547V19.4735H109.434V17.2855C108.744 18.8609 107.226 19.8673 105.524 19.8673C103.5 19.8673 102.212 18.9921 101.706 17.2855L101.614 16.8479C101.522 16.4103 101.476 15.9726 101.476 15.535V9.14598C101.476 7.74564 101.154 7.30803 99.866 7.22051H99.82V7.00171L105.662 5.38256V15.4475C105.662 16.9354 106.352 17.7668 107.64 17.7668C108.422 17.7668 109.066 17.373 109.434 16.7166V9.14598C109.434 7.70188 109.158 7.26427 108.1 7.17675H108.054V6.95795L113.666 5.38256ZM71.484 5.3388C73.048 5.3388 74.566 5.86393 75.578 6.78291C76.728 7.83316 77.326 9.36479 77.372 11.3778V11.4215H68.586C68.402 14.3097 70.288 16.6728 72.772 16.7603C74.566 16.8916 76.13 15.8414 77.004 14.1347L77.234 14.2222C76.728 17.4168 74.75 19.8236 71.3 19.8236C67.39 19.8236 65.182 16.7166 65.09 12.8219V11.8154C65.274 10.1087 65.826 8.57709 66.792 7.43932C67.39 6.73914 68.08 6.21402 68.908 5.86393C69.598 5.51385 70.61 5.3388 71.438 5.3388H71.484ZM132.342 5.38256C134.826 5.38256 136.344 6.87043 136.344 9.40855V17.548C136.344 18.5108 136.804 18.9921 137.954 19.2547H138V19.4735H132.112V9.53983C132.112 7.96444 131.514 7.17675 130.272 7.17675C129.26 7.17675 128.754 7.87692 128.478 8.48957C128.524 8.7959 128.57 9.10222 128.57 9.40855V17.6793C128.57 18.6858 128.892 19.0359 129.812 19.2547H129.858V19.4735H124.384V9.53983C124.384 7.96444 123.74 7.17675 122.544 7.17675C121.578 7.17675 121.072 7.83316 120.842 8.35829V17.7231C120.842 18.7296 121.164 19.0797 122.084 19.2985H122.13V19.5173H116.656V9.10222C116.656 7.70188 116.288 7.26427 115.046 7.17675H115V6.95795L120.842 5.42632V7.74564C121.44 6.25778 122.82 5.38256 124.568 5.38256C126.546 5.38256 127.926 6.30154 128.386 7.96444C128.984 6.38906 130.502 5.38256 132.342 5.38256ZM48.438 0.875214L53.912 13.0844L59.386 0.875214H65.274L65.228 1.09402L65.1612 1.10817C64.1468 1.32811 63.618 1.68898 63.618 2.8882V17.7668C63.71 18.7296 64.262 19.0359 65.228 19.2547H65.274V19.4735H57.776V19.2547H57.822C58.788 19.0359 59.34 18.7296 59.432 17.7668V3.28205L52.21 19.4297H51.796L44.758 3.71966V17.4168C44.758 18.642 45.31 18.9921 46.368 19.2109H46.414V19.4297H42.09V19.2109H42.136C43.194 18.9921 43.746 18.642 43.746 17.4168V2.8882C43.746 1.66291 43.194 1.31282 42.136 1.09402H42.09V0.875214H48.438ZM98.624 5.38256V17.3292L98.6247 17.41C98.6472 18.6566 99.198 18.9976 100.234 19.2547L100.28 19.4735H94.438V9.14598C94.438 7.74564 94.116 7.30803 92.828 7.22051H92.782V7.00171L98.624 5.38256ZM26.91 0.787692C29.716 0.787692 32.062 4.98872 32.062 10.1087C32.062 15.2725 29.762 19.4297 26.91 19.4297C24.058 19.4297 21.758 15.2725 21.758 10.1087C21.758 4.94496 24.058 0.787692 26.91 0.787692ZM34.822 1.75043C35.88 1.75043 36.662 5.51385 36.662 10.1087C36.662 14.7036 35.834 18.467 34.822 18.467C33.8201 18.467 32.9986 14.7785 32.9822 10.2463L32.982 10.1087C32.982 5.51385 33.81 1.75043 34.822 1.75043ZM85.652 6.1265C83.812 6.1265 82.662 8.44581 82.662 12.0342C82.662 13.7409 82.984 15.2287 83.536 16.2352C84.042 17.1979 84.778 17.7231 85.606 17.7231C86.434 17.7231 87.032 17.373 87.308 16.7166V7.08923C86.986 6.47658 86.388 6.1265 85.652 6.1265ZM71.438 6.17026C69.782 6.17026 68.816 8.05197 68.678 10.6776V10.7214H73.692C73.784 8.66461 73.416 7.30803 72.726 6.65162C72.358 6.3453 71.944 6.17026 71.438 6.17026ZM96.37 0.131282C97.704 0.131282 98.716 1.09402 98.716 2.36308C98.716 3.63214 97.704 4.59487 96.37 4.59487C95.036 4.59487 94.024 3.63214 94.024 2.36308C94.024 1.09402 95.036 0.131282 96.37 0.131282Z" fill="white"/>
</svg>
