<svg width="160" height="24" viewBox="0 0 160 24" fill="none" xmlns="http://www.w3.org/2000/svg">
<path d="M12 0.262564C18.6133 0.262564 24 5.56636 24 12.1305C24 18.6946 18.6133 23.9984 12 23.9984C5.38667 23.9984 0 18.7471 0 12.1305C0 5.51385 5.38667 0.262564 12 0.262564ZM106.08 0V20.7951C106.08 22.3705 106.72 22.7906 107.947 23.1056L108 23.3682H101.227V20.7951C100.427 22.6855 98.7733 23.8408 96.64 23.8408C93.0133 23.8408 90.6133 20.585 90.6133 15.7538C90.6133 13.0232 91.4133 10.7126 92.9067 8.97969C94.3467 7.29928 96.32 6.40656 98.5067 6.40656C99.5733 6.40656 100.48 6.61662 101.227 7.08923V4.25354C101.227 3.62338 101.067 3.20328 100.747 2.88821C100.32 2.52062 99.6267 2.36308 98.56 2.4681H98.5067V2.20554L106.08 0ZM131.787 6.45908V20.7951C131.787 22.3705 132.427 22.7906 133.653 23.1056V23.3682H126.88V20.7426C126.08 22.633 124.32 23.8408 122.347 23.8408C120 23.8408 118.507 22.7906 117.92 20.7426L117.813 20.2174C117.707 19.6923 117.653 19.1672 117.653 18.6421V10.9752C117.653 9.29477 117.28 8.76964 115.787 8.66462H115.733V8.40205L122.507 6.45908V18.537C122.507 20.3225 123.307 21.3202 124.8 21.3202C125.707 21.3202 126.453 20.8476 126.88 20.0599V10.9752C126.88 9.24226 126.56 8.71713 125.333 8.6121H125.28V8.34954L131.787 6.45908ZM82.88 6.40656C84.6933 6.40656 86.4533 7.03672 87.6267 8.13949C88.96 9.3998 89.6533 11.2377 89.7067 13.6533V13.7058H79.52C79.3067 17.1717 81.4933 20.0074 84.3733 20.1124C86.4533 20.2699 88.2667 19.0096 89.28 16.9616L89.5467 17.0667C88.96 20.9001 86.6667 23.7883 82.6667 23.7883C78.1333 23.7883 75.5733 20.0599 75.4667 15.3863V14.1785C75.68 12.1305 76.32 10.2925 77.44 8.92718C78.1333 8.08697 78.9333 7.45682 79.8933 7.03672C80.6933 6.61662 81.8667 6.40656 82.8267 6.40656H82.88ZM153.44 6.45908C156.32 6.45908 158.08 8.24451 158.08 11.2903V21.0576C158.08 22.2129 158.613 22.7906 159.947 23.1056H160V23.3682H153.173V11.4478C153.173 9.55733 152.48 8.6121 151.04 8.6121C149.867 8.6121 149.28 9.45231 148.96 10.1875C149.013 10.5551 149.067 10.9227 149.067 11.2903V21.2152C149.067 22.423 149.44 22.8431 150.507 23.1056H150.56V23.3682H144.213V11.4478C144.213 9.55733 143.467 8.6121 142.08 8.6121C140.96 8.6121 140.373 9.39979 140.107 10.0299V21.2677C140.107 22.4755 140.48 22.8956 141.547 23.1582H141.6V23.4207H135.253V10.9227C135.253 9.24226 134.827 8.71713 133.387 8.6121H133.333V8.34954L140.107 6.51159V9.29477C140.8 7.50933 142.4 6.45908 144.427 6.45908C146.72 6.45908 148.32 7.56185 148.853 9.55733C149.547 7.66687 151.307 6.45908 153.44 6.45908ZM56.16 1.05026L62.5067 15.7013L68.8533 1.05026H75.68L75.6267 1.31282L75.5492 1.3298C74.3731 1.59374 73.76 2.02677 73.76 3.46585V21.3202C73.8667 22.4755 74.5067 22.8431 75.6267 23.1056H75.68V23.3682H66.9867V23.1056H67.04C68.16 22.8431 68.8 22.4755 68.9067 21.3202V3.93846L60.5333 23.3157H60.0533L51.8933 4.46359V20.9001C51.8933 22.3705 52.5333 22.7906 53.76 23.0531H53.8133V23.3157H48.8V23.0531H48.8533C50.08 22.7906 50.72 22.3705 50.72 20.9001V3.46585C50.72 1.99549 50.08 1.57538 48.8533 1.31282H48.8V1.05026H56.16ZM114.347 6.45908V20.7951L114.347 20.892C114.374 22.3879 115.012 22.7971 116.213 23.1056L116.267 23.3682H109.493V10.9752C109.493 9.29477 109.12 8.76964 107.627 8.66462H107.573V8.40205L114.347 6.45908ZM31.2 0.945231C34.4533 0.945231 37.1733 5.98646 37.1733 12.1305C37.1733 18.327 34.5067 23.3157 31.2 23.3157C27.8933 23.3157 25.2267 18.327 25.2267 12.1305C25.2267 5.93395 27.8933 0.945231 31.2 0.945231ZM40.3733 2.10051C41.6 2.10051 42.5067 6.61662 42.5067 12.1305C42.5067 17.6443 41.5467 22.1604 40.3733 22.1604C39.2117 22.1604 38.2592 17.7342 38.2403 12.2956L38.24 12.1305C38.24 6.61662 39.2 2.10051 40.3733 2.10051ZM99.3067 7.3518C97.1733 7.3518 95.84 10.135 95.84 14.441C95.84 16.489 96.2133 18.2745 96.8533 19.4823C97.44 20.6375 98.2933 21.2677 99.2533 21.2677C100.213 21.2677 100.907 20.8476 101.227 20.0599V8.50708C100.853 7.7719 100.16 7.3518 99.3067 7.3518ZM82.8267 7.40431C80.9067 7.40431 79.7867 9.66236 79.6267 12.8131V12.8656H85.44C85.5467 10.3975 85.12 8.76964 84.32 7.98195C83.8933 7.61436 83.4133 7.40431 82.8267 7.40431ZM111.733 0.157538C113.28 0.157538 114.453 1.31282 114.453 2.83569C114.453 4.35856 113.28 5.51385 111.733 5.51385C110.187 5.51385 109.013 4.35856 109.013 2.83569C109.013 1.31282 110.187 0.157538 111.733 0.157538Z" fill="white"/>
</svg>
