<svg width="128" height="32" viewBox="0 0 128 32" fill="none" xmlns="http://www.w3.org/2000/svg">
<path d="M4.69189 18.9048V31.508H0.00260516V18.9048H4.69189ZM31.2645 18.9048V31.508H26.5752V18.9048H31.2645ZM11.0389 2.92412L12.2772 5.52704C12.3786 5.7388 12.3856 5.98409 12.2964 6.20136C12.2072 6.41862 12.0303 6.58721 11.81 6.66483C7.65308 8.15271 4.68928 11.9984 4.68928 16.5085V17.3338H0V16.5085C0 10.1193 4.15783 4.66669 10.0168 2.50489C10.4138 2.35801 10.8565 2.53959 11.0389 2.92412ZM21.2459 2.49351C27.1066 4.66232 31.2645 10.1176 31.2645 16.5041V17.3294H26.5752V16.5041C26.5752 11.9941 23.6149 8.14921 19.4544 6.66045C19.2342 6.58284 19.0573 6.41424 18.9681 6.19698C18.8789 5.97972 18.8858 5.73442 18.9872 5.52266L20.2238 2.91275C20.4062 2.52821 20.8489 2.34663 21.2459 2.49351Z" fill="white"/>
<path d="M15.6334 7.50154C20.8125 7.50154 25.012 11.5319 25.012 16.5041V31.508H20.3227V16.5041C20.3227 14.0176 18.223 12.0028 15.6334 12.0028C13.0439 12.0028 10.9442 14.0158 10.9442 16.5041V31.508H6.25488V16.5041C6.25488 11.5319 10.4544 7.50154 15.6334 7.50154ZM18.6085 0.203054C18.868 0.238663 19.095 0.396919 19.2196 0.629033C19.3442 0.861148 19.3514 1.13925 19.239 1.3776L19.0141 1.85197L17.273 5.52791C17.1273 5.83115 16.8147 6.016 16.481 5.99616C16.2002 5.9804 15.9177 5.97252 15.6334 5.97252C15.3495 5.97252 15.0664 5.9804 14.7859 5.99616C14.4524 6.01612 14.14 5.83118 13.9948 5.52791L12.2528 1.85197L12.0279 1.3776C11.9155 1.13925 11.9227 0.861148 12.0473 0.629033C12.1719 0.396919 12.3989 0.238663 12.6584 0.203054C14.6327 -0.0676847 16.6342 -0.0676847 18.6085 0.203054Z" fill="#FFC905"/>
<path d="M121.145 14.9217C121.493 14.9211 121.829 14.9366 122.152 14.9681C123.822 15.1262 125.158 15.6928 126.16 16.6678C127.214 17.6941 127.803 19.0857 127.927 20.8426C127.944 21.0783 127.952 21.3219 127.952 21.5734C127.954 21.6848 127.945 21.7961 127.927 21.906C127.92 22.0067 127.874 22.1007 127.8 22.1685C127.697 22.2403 127.413 22.2762 126.95 22.2762H117.164C117.083 22.46 117.043 22.7969 117.043 23.2871C117.043 25.2878 117.473 26.8702 118.334 28.0343C119.195 29.1983 120.365 29.7803 121.844 29.7803C122.722 29.7746 123.588 29.576 124.381 29.1983C125.275 28.7749 126.1 28.2171 126.828 27.5441L127.679 28.6163C126.364 30.1153 124.819 31.0801 123.042 31.5107C122.301 31.6881 121.542 31.7763 120.78 31.7734C119.995 31.7777 119.212 31.6896 118.447 31.5107C118.078 31.4235 117.715 31.3109 117.361 31.1737C115.382 30.4332 113.807 28.8799 113.031 26.9009C112.625 25.9008 112.423 24.7881 112.423 23.5628C112.409 22.3728 112.625 21.1916 113.061 20.0855C113.469 19.0594 114.085 18.1302 114.869 17.3574C115.664 16.5815 116.604 15.9723 117.635 15.565C118.439 15.2447 119.285 15.0437 120.146 14.9681C120.463 14.9377 120.796 14.9223 121.145 14.9217ZM69.4377 14.9261C69.766 14.9261 70.089 14.9409 70.4077 14.9724C71.2565 15.0519 72.0907 15.2477 72.8869 15.5545C73.9357 15.9515 74.9038 16.5378 75.7439 17.2848C76.5623 18.0144 77.2252 18.9038 77.6926 19.8991C78.1752 20.9399 78.4192 22.077 78.4064 23.2258C78.4197 24.4079 78.176 25.5787 77.6926 26.6558C77.2308 27.6771 76.5692 28.594 75.7474 29.3515C74.9119 30.1162 73.9433 30.7185 72.8904 31.1282C72.4971 31.2839 72.0935 31.4117 71.6825 31.5107C70.212 31.8584 68.6816 31.8584 67.2112 31.5107C66.8119 31.4154 66.4197 31.2926 66.0371 31.1431C64.9925 30.7429 64.0334 30.1452 63.2114 29.3821C62.3969 28.6192 61.7467 27.6957 61.301 26.6689C60.8293 25.5831 60.5925 24.4084 60.6062 23.2232C60.5934 22.0724 60.8305 20.9328 61.301 19.8842C61.7512 18.883 62.4016 17.9861 63.2114 17.2498C64.0382 16.5044 64.9968 15.9225 66.0371 15.5343C66.8212 15.2385 67.641 15.0495 68.4747 14.9724C68.7908 14.9418 69.1095 14.9261 69.4377 14.9261ZM46.653 7.87701C49.5969 7.87643 51.8706 8.39806 53.4742 9.44191C55.0778 10.4858 55.8796 11.9386 55.8796 13.8005C55.8795 14.1913 55.8505 14.5816 55.7928 14.9681C55.6377 16.1126 55.1593 17.1881 54.4147 18.0664C53.4398 19.2129 51.8868 19.9799 49.7558 20.3673L56.8201 28.5314C57.2933 29.0933 57.8872 29.5393 58.5569 29.8355C59.1998 30.1264 59.8963 30.2778 60.601 30.2801V31.5054H53.3839L45.8289 22.1755C45.3218 21.5617 44.8804 21.1474 44.5046 20.9327C44.1289 20.718 43.7787 20.6106 43.4539 20.6106V26.6357C43.4418 27.2581 43.493 27.8801 43.6067 28.492C43.7075 28.9728 43.9101 29.3462 44.2146 29.6123C44.5185 29.879 44.96 30.0581 45.5389 30.1497C46.1178 30.2413 46.8944 30.2871 47.8688 30.2871V31.5124H35.7756V30.2871C36.3219 30.2983 36.8679 30.2523 37.4047 30.1497C37.821 30.0557 38.1457 29.8807 38.3791 29.6246C38.6124 29.3684 38.7695 29.0101 38.8506 28.5498C38.9414 27.9662 38.9823 27.3759 38.973 26.7853V12.6067C38.9822 12.0275 38.9532 11.4483 38.8862 10.8729C38.8248 10.433 38.6928 10.0852 38.4902 9.82964C38.2681 9.56054 37.9619 9.37539 37.6218 9.3045C37.1264 9.19476 36.6227 9.12713 36.116 9.10233V7.87701H46.653ZM85.2267 14.9707L85.5914 17.6349H85.7738C86.6265 16.6791 87.4833 15.997 88.3442 15.5886C89.2051 15.1802 90.2028 14.9759 91.3375 14.9759C92.6743 14.9759 93.7786 15.2093 94.6504 15.6761C95.5014 16.1265 96.1917 16.8333 96.6251 17.6979H96.7467C97.4654 16.8483 98.3568 16.1642 99.3605 15.6919C100.378 15.2113 101.489 14.9655 102.613 14.9724C103.828 14.9736 104.886 15.1265 105.788 15.4311C106.69 15.7356 107.394 16.1733 107.9 16.7439C108.306 17.2136 108.605 17.8263 108.797 18.5819C108.989 19.3375 109.086 20.3892 109.086 21.737V26.4492C109.087 27.286 109.113 27.9497 109.162 28.4404C109.211 28.9311 109.327 29.3089 109.509 29.5738C109.696 29.8448 109.979 30.0329 110.3 30.0989C110.771 30.1961 111.249 30.2555 111.73 30.2766V31.5019H102.126V30.2766C102.612 30.2715 103.096 30.2152 103.57 30.1086C103.895 30.0356 104.185 29.8516 104.39 29.5878C104.583 29.3328 104.705 28.9804 104.755 28.5305C104.813 27.9197 104.838 27.3061 104.831 26.6926V22.6805C104.843 21.7785 104.782 20.877 104.649 19.9848C104.527 19.2502 104.335 18.658 104.072 18.2081C103.833 17.7828 103.465 17.4455 103.023 17.2454C102.587 17.0511 102.055 16.954 101.427 16.954C100.719 16.9575 100.136 17.1325 99.6801 17.4791C99.2103 17.8426 98.8217 18.3019 98.5399 18.8269C98.0131 19.7873 97.7497 20.982 97.7497 22.411V26.4475C97.7497 27.2842 97.7699 27.9479 97.8105 28.4386C97.851 28.9293 97.9624 29.3071 98.1448 29.572C98.3356 29.8459 98.6246 30.0342 98.9507 30.0972C99.4373 30.1967 99.9309 30.2581 100.427 30.281V31.5063H90.793V30.281C91.2781 30.257 91.7606 30.1955 92.2363 30.0972C92.5582 30.0352 92.8485 29.8619 93.0569 29.607C93.2497 29.3626 93.3713 29.0104 93.4216 28.5507C93.4793 27.9345 93.5048 27.3158 93.4981 26.6969V22.6849C93.5094 21.7829 93.4484 20.8814 93.3157 19.9892C93.1936 19.2546 92.9959 18.6624 92.7226 18.2125C92.4723 17.7855 92.0949 17.4487 91.6441 17.2498C91.1989 17.0555 90.6417 16.9583 89.9724 16.9583C89.3032 16.9583 88.7512 17.1217 88.3164 17.4485C87.8615 17.7986 87.4922 18.2492 87.237 18.7657C86.9588 19.2966 86.7543 19.8635 86.6291 20.4505C86.4863 21.094 86.415 21.7515 86.4164 22.411L86.4166 26.5975C86.4187 27.3883 86.4389 28.0151 86.4772 28.478C86.5177 28.9681 86.6291 29.341 86.8115 29.5965C87.0033 29.8582 87.2851 30.0383 87.6017 30.1015C88.0723 30.2007 88.55 30.2622 89.0302 30.2853V31.5107H79.4224V30.2853C79.9125 30.2605 80.4002 30.199 80.8813 30.1015C81.2431 30.0193 81.5167 29.8559 81.7019 29.6114C81.8872 29.3669 82.0088 29.0148 82.0666 28.555C82.1357 27.9397 82.1662 27.3205 82.1578 26.7013V22.9037C82.1572 21.7397 82.1419 20.7696 82.1118 19.9936C82.0817 19.2176 82.0261 18.6866 81.9451 18.4007C81.9011 18.181 81.8241 17.9694 81.7167 17.7732C81.6145 17.6105 81.4663 17.4825 81.2912 17.4056C81.0551 17.3025 80.8035 17.2404 80.547 17.2218C80.243 17.1908 79.8479 17.1754 79.3616 17.1754V16.1339L85.2267 14.9707ZM69.4412 16.7028C68.8505 16.6978 68.2706 16.8627 67.7696 17.178C67.2428 17.5155 66.8008 17.9715 66.4783 18.5101C66.0963 19.1487 65.8192 19.8453 65.6576 20.573C65.4572 21.4521 65.3605 22.3519 65.3693 23.2538C65.3589 24.1807 65.4557 25.1056 65.6576 26.0099C65.8166 26.7447 66.0938 27.4483 66.4783 28.0929C66.7979 28.6291 67.2345 29.0849 67.7548 29.4259C68.2595 29.7455 68.8452 29.9109 69.4412 29.902C70.0462 29.9086 70.6409 29.7443 71.158 29.4276C71.6971 29.0885 72.15 28.6269 72.4805 28.0798C72.8729 27.4295 73.1602 26.7205 73.3316 25.9793C73.5424 25.0881 73.6444 24.1743 73.6355 23.2582C73.645 22.3605 73.5429 21.4652 73.3316 20.5931C73.1566 19.8635 72.8694 19.166 72.4805 18.5259C72.15 17.9788 71.6971 17.5172 71.158 17.178C70.641 16.8611 70.0463 16.6964 69.4412 16.7028ZM121.103 16.698L121.025 16.6984C120.155 16.699 119.38 17.0616 118.7 17.7863C118.021 18.511 117.58 19.4349 117.379 20.5581H121.785C122.595 20.5575 123.116 20.5114 123.348 20.4198C123.581 20.3279 123.698 20.1091 123.695 19.7617C123.695 18.8637 123.441 18.1285 122.935 17.5561C122.457 16.9977 121.757 16.6833 121.025 16.6984L121.103 16.698ZM46.653 9.59245H44.0053C43.64 9.59245 43.4574 9.7675 43.4574 10.1176V18.7727H45.4373C47.3431 18.7727 48.7687 18.3978 49.7141 17.648C50.4615 17.0569 50.9127 16.1625 51.0679 14.9646C51.1108 14.6282 51.1317 14.2893 51.1305 13.9502C51.1298 12.6403 50.7339 11.5865 49.9425 10.7889C49.1511 9.99126 48.0546 9.59245 46.653 9.59245Z" fill="white"/>
</svg>
